# xmcd
#
# Track frame offsets: 
#        150
#        15610
#        29525
#        42642
#        60687
#        79782
#        97090
#        128712
#        150135
#        172887
#        187882
#        203082
#        234584
#        261217
#        281259
#        301184
#        330339
#
# Disc length: 4632 seconds
#
# Revision: 0
# Processed by: cddbd v1.5.2PL0 Copyright (c) Steve Scherf et al.
# Submitted via: ExactAudioCopyFreeDBPlugin 1.0
#
DISCID=d4121611
DTITLE=Big Joe Turner, Eddie ''Cleanhead'' Vinson and Roomful Of Blues /
DTITLE=Big Joe Turner, Eddie ''Cleanhead'' Vinson and Roomful Of Blues
DYEAR=2014
DGENRE=Blues
TTITLE0=Big Joe Turner and Roomful Of Blues - Crawdad Hole
TTITLE1=Big Joe Turner and Roomful Of Blues - Red Sails In The Sunset
TTITLE2=Big Joe Turner and Roomful Of Blues - Cock-A-Doodle-Doo
TTITLE3=Big Joe Turner and Roomful Of Blues - Jumpin' For Joe
TTITLE4=Big Joe Turner and Roomful Of Blues - I Want A Little Girl
TTITLE5=Big Joe Turner and Roomful Of Blues - Blues Train
TTITLE6=Big Joe Turner and Roomful Of Blues - I Know You Love Me
TTITLE7=Big Joe Turner and Roomful Of Blues - Last Night
TTITLE8=Big Joe Turner and Roomful Of Blues - I Love The Way (My Baby Si
TTITLE8=ngs The Blues)
TTITLE9=Eddie ''Cleanhead'' Vinson and Roomful Of Blues - House Of Joy
TTITLE10=Eddie ''Cleanhead'' Vinson and Roomful Of Blues - He Was A Frie
TTITLE10=nd Of Mine
TTITLE11=Eddie ''Cleanhead'' Vinson and Roomful Of Blues - Movin' With L
TTITLE11=ester
TTITLE12=Eddie ''Cleanhead'' Vinson and Roomful Of Blues - No Bones
TTITLE13=Eddie ''Cleanhead'' Vinson and Roomful Of Blues - That's A Groo
TTITLE13=vy Thing
TTITLE14=Eddie ''Cleanhead'' Vinson and Roomful Of Blues - Past Sixty Bl
TTITLE14=ues
TTITLE15=Eddie ''Cleanhead'' Vinson and Roomful Of Blues - Street Lights
TTITLE16=Eddie ''Cleanhead'' Vinson and Roomful Of Blues - Farmer's Daug
TTITLE16=hter Blues
EXTD=
EXTT0=
EXTT1=
EXTT2=
EXTT3=
EXTT4=
EXTT5=
EXTT6=
EXTT7=
EXTT8=
EXTT9=
EXTT10=
EXTT11=
EXTT12=
EXTT13=
EXTT14=
EXTT15=
EXTT16=
PLAYORDER=
